<svg width="454" height="221" viewBox="0 0 454 221" fill="none" xmlns="http://www.w3.org/2000/svg">
<path d="M206.333 -1.52588e-05L184.934 21.2824L206.333 42.5649L227.732 21.2824L206.333 -1.52588e-05Z" fill="#071330"/>
<path d="M181.366 24.8325L159.967 46.1149L181.366 67.3973L202.765 46.1149L181.366 24.8325Z" fill="#071330"/>
<path d="M184.935 70.9454L206.335 49.663L227.734 70.9454L206.335 92.2278L184.935 70.9454Z" fill="#071330"/>
<path d="M156.399 49.665L135 70.9474L156.399 92.2298L177.798 70.9474L156.399 49.665Z" fill="#071330"/>
<path d="M159.969 95.7789L181.368 74.4964L202.767 95.7789L181.368 117.061L159.969 95.7789Z" fill="#071330"/>
<path d="M206.336 99.3269L184.937 120.609L206.336 141.892L227.735 120.609L206.336 99.3269Z" fill="#071330"/>
<path d="M255.722 67.6826L278.324 59.0537L287 81.5328L264.398 90.1617L255.722 67.6826Z" fill="#071330"/>
<path d="M239.951 75.1724L217.109 89.9256L231.943 112.644L254.785 97.8904L239.951 75.1724Z" fill="#071330"/>
<path d="M217.082 40.7035L239.961 26.0759L254.668 48.83L231.79 63.4576L217.082 40.7035Z" fill="#071330"/>
<path d="M220.745 195.071C220.774 198.607 220.122 202.116 218.825 205.407C217.656 208.463 215.871 211.247 213.58 213.588C211.288 215.928 208.54 217.775 205.504 219.013C202.303 220.35 198.863 221.026 195.392 220.999C191.778 221.024 188.196 220.337 184.85 218.977C178.494 216.442 173.404 211.498 170.694 205.228C169.29 202.002 168.579 198.517 168.607 195C168.587 191.565 169.258 188.16 170.579 184.988C171.9 181.816 173.845 178.939 176.299 176.529C178.74 174.162 181.62 172.292 184.778 171.022C188.101 169.667 191.659 168.98 195.249 169C199.332 168.978 203.372 169.838 207.09 171.522C210.643 173.085 213.783 175.451 216.261 178.432L208.975 185.128C207.281 183.095 205.176 181.441 202.797 180.276C200.445 179.14 197.862 178.559 195.249 178.575C193.078 178.562 190.927 178.991 188.928 179.836C187.026 180.644 185.307 181.827 183.873 183.312C182.439 184.798 181.319 186.556 180.58 188.482C179.768 190.558 179.363 192.771 179.388 195C179.353 197.241 179.758 199.467 180.58 201.553C181.344 203.503 182.497 205.278 183.968 206.771C185.44 208.263 187.201 209.442 189.143 210.236C191.167 211.078 193.341 211.507 195.535 211.496C198.851 211.575 202.096 210.531 204.741 208.535C207.223 206.701 208.925 204.006 209.511 200.982H194.605L196.513 191.908H220.733L220.745 195.071Z" fill="#071330"/>
<path d="M354.353 211.335C356.938 211.353 359.493 210.788 361.827 209.682C364.19 208.542 366.288 206.922 367.985 204.927L374.872 211.703C372.338 214.619 369.18 216.934 365.629 218.48C362.144 220.052 358.374 220.907 354.548 220.993C350.722 221.079 346.918 220.394 343.365 218.979C340.182 217.711 337.272 215.851 334.791 213.498C332.357 211.169 330.422 208.375 329.099 205.284C327.71 202.049 327.006 198.565 327.031 195.048C327.013 191.595 327.698 188.174 329.044 184.991C330.389 181.808 332.369 178.928 334.863 176.526C337.349 174.174 340.263 172.314 343.448 171.045C346.819 169.68 350.427 168.986 354.066 169C358.144 169.014 362.172 169.893 365.88 171.58C369.477 173.134 372.656 175.508 375.159 178.511L368.056 185.513C366.362 183.372 364.21 181.634 361.755 180.425C359.362 179.258 356.731 178.655 354.066 178.665C351.862 178.65 349.678 179.079 347.645 179.926C345.7 180.716 343.939 181.893 342.468 183.385C340.996 184.87 339.838 186.633 339.06 188.568C338.234 190.645 337.828 192.863 337.864 195.095C337.848 197.311 338.283 199.507 339.144 201.551C339.939 203.484 341.123 205.236 342.623 206.698C344.12 208.167 345.891 209.33 347.837 210.122C349.906 210.954 352.121 211.367 354.353 211.335Z" fill="#071330"/>
<path d="M149.725 170H160.585V220H149.725V170Z" fill="#071330"/>
<path d="M59.6529 170H47.79L67.8437 201V220H79.5372V201L99.5908 170H87.728L73.6904 192.105L59.6529 170Z" fill="#071330"/>
<path d="M10.8602 170H0V220H10.8602V195L32.9192 220H45.7847L23.7257 195L45.7847 170H32.9192L10.8602 195V170Z" fill="#071330"/>
<path d="M114.462 170H103.602V220H139.531L141.703 209.167H114.462V170Z" fill="#071330"/>
<path d="M228.767 170V220H264.864L266.869 210H238.794V200H260.352L262.357 190H238.794V180H264.864L266.869 170H228.767Z" fill="#071330"/>
<path d="M383.18 170V220H419.277L421.282 210H393.207V200H414.765L416.77 190H393.207V180H419.277L421.282 170H383.18Z" fill="#071330"/>
<path d="M274.891 170H284.918L308.982 202V170H319.009V220H308.982L284.918 187V220H274.891V170Z" fill="#071330"/>
<path d="M442.852 189H445.541L442.744 184.248C444.188 183.582 445.18 182.16 445.18 180.576C445.18 178.272 443.303 176.4 440.975 176.4H435.922V189H438.412V184.626H440.307L442.852 189ZM438.412 178.722H440.975C441.914 178.722 442.69 179.532 442.69 180.576C442.69 181.62 441.914 182.448 440.975 182.448H438.412V178.722Z" fill="#071330"/>
<path fill-rule="evenodd" clip-rule="evenodd" d="M453.368 183C453.368 190.18 447.532 196 440.333 196C433.134 196 427.298 190.18 427.298 183C427.298 175.82 433.134 170 440.333 170C447.532 170 453.368 175.82 453.368 183ZM440.333 193C445.871 193 450.36 188.523 450.36 183C450.36 177.477 445.871 173 440.333 173C434.796 173 430.306 177.477 430.306 183C430.306 188.523 434.796 193 440.333 193Z" fill="#071330"/>
</svg>
